<svg width="24" height="24" viewBox="0 0 24 24" fill="none" xmlns="http://www.w3.org/2000/svg">
<path d="M10.9748 3.00012C15.3769 3.00012 18.9496 6.57283 18.9496 10.9749C18.9496 15.377 15.3769 18.9497 10.9748 18.9497C6.57271 18.9497 3 15.377 3 10.9749C3 6.57283 6.57271 3.00012 10.9748 3.00012ZM10.9748 17.1775C14.4013 17.1775 17.1774 14.4014 17.1774 10.9749C17.1774 7.54753 14.4013 4.7723 10.9748 4.7723C7.54741 4.7723 4.77218 7.54753 4.77218 10.9749C4.77218 14.4014 7.54741 17.1775 10.9748 17.1775ZM18.4933 17.2404L21 19.7463L19.7462 21.0001L17.2403 18.4934L18.4933 17.2404Z" fill="#BDB2A0"/>
</svg>
