<svg width="25" height="24" viewBox="0 0 25 24" fill="none" xmlns="http://www.w3.org/2000/svg">
<path d="M6.98279 7.70235L4.5 5.12485L5.5833 3.99988L8.06533 6.57817H19.7344C19.8537 6.57816 19.9714 6.60712 20.078 6.66274C20.1846 6.71835 20.2773 6.79908 20.3485 6.89849C20.4198 6.99789 20.4677 7.11321 20.4884 7.23525C20.5091 7.35729 20.502 7.48267 20.4678 7.60138L18.6304 13.9616C18.5831 14.1255 18.4862 14.2691 18.3541 14.3712C18.222 14.4734 18.0617 14.5285 17.897 14.5285H8.51396V16.1186H16.9354V17.7086H7.74837C7.54533 17.7086 7.3506 17.6249 7.20702 17.4758C7.06345 17.3267 6.98279 17.1245 6.98279 16.9136V7.70235ZM8.51396 8.16824V12.9384H17.3274L18.7054 8.16824H8.51396ZM8.13117 20.8888C7.8266 20.8888 7.5345 20.7631 7.31914 20.5395C7.10378 20.3158 6.98279 20.0125 6.98279 19.6962C6.98279 19.3799 7.10378 19.0766 7.31914 18.853C7.5345 18.6293 7.8266 18.5037 8.13117 18.5037C8.43573 18.5037 8.72783 18.6293 8.94319 18.853C9.15855 19.0766 9.27954 19.3799 9.27954 19.6962C9.27954 20.0125 9.15855 20.3158 8.94319 20.5395C8.72783 20.7631 8.43573 20.8888 8.13117 20.8888ZM17.3182 20.8888C17.0136 20.8888 16.7215 20.7631 16.5062 20.5395C16.2908 20.3158 16.1698 20.0125 16.1698 19.6962C16.1698 19.3799 16.2908 19.0766 16.5062 18.853C16.7215 18.6293 17.0136 18.5037 17.3182 18.5037C17.6227 18.5037 17.9148 18.6293 18.1302 18.853C18.3456 19.0766 18.4666 19.3799 18.4666 19.6962C18.4666 20.0125 18.3456 20.3158 18.1302 20.5395C17.9148 20.7631 17.6227 20.8888 17.3182 20.8888Z" fill="white"/>
</svg>
