<svg width="25" height="24" viewBox="0 0 25 24" fill="none" xmlns="http://www.w3.org/2000/svg">
<g clip-path="url(#clip0)">
<path d="M16.3108 22V14.26H18.9217L19.3122 11.2511H16.3108V9.33111C16.3108 8.46 16.5547 7.86556 17.8126 7.86556H19.4174V5.17444C18.6405 5.09261 17.8597 5.05292 17.0785 5.05556C14.7653 5.05556 13.1818 6.45778 13.1818 9.03333V11.2511H10.5653V14.26H13.1818V22H3.55075C3.25394 22 2.96929 21.8829 2.75942 21.6746C2.54955 21.4662 2.43164 21.1836 2.43164 20.8889V3.11111C2.43164 2.81643 2.54955 2.53381 2.75942 2.32544C2.96929 2.11706 3.25394 2 3.55075 2H21.4564C21.7532 2 22.0379 2.11706 22.2478 2.32544C22.4576 2.53381 22.5755 2.81643 22.5755 3.11111V20.8889C22.5755 21.1836 22.4576 21.4662 22.2478 21.6746C22.0379 21.8829 21.7532 22 21.4564 22H16.3108Z" fill="#1A1919"/>
</g>
<defs>
<clipPath id="clip0">
<rect width="24.1727" height="24" fill="white" transform="translate(0.417236)"/>
</clipPath>
</defs>
</svg>
