<svg width="24" height="24" viewBox="0 0 24 24" fill="none" xmlns="http://www.w3.org/2000/svg">
<path d="M7 5.00012V2.00012C7 1.73491 7.10536 1.48055 7.29289 1.29302C7.48043 1.10548 7.73478 1.00012 8 1.00012H16C16.2652 1.00012 16.5196 1.10548 16.7071 1.29302C16.8946 1.48055 17 1.73491 17 2.00012V5.00012H21C21.2652 5.00012 21.5196 5.10548 21.7071 5.29302C21.8946 5.48055 22 5.73491 22 6.00012V20.0001C22 20.2653 21.8946 20.5197 21.7071 20.7072C21.5196 20.8948 21.2652 21.0001 21 21.0001H3C2.73478 21.0001 2.48043 20.8948 2.29289 20.7072C2.10536 20.5197 2 20.2653 2 20.0001V6.00012C2 5.73491 2.10536 5.48055 2.29289 5.29302C2.48043 5.10548 2.73478 5.00012 3 5.00012H7ZM4 16.0001V19.0001H20V16.0001H4ZM4 14.0001H20V7.00012H4V14.0001ZM9 3.00012V5.00012H15V3.00012H9ZM11 11.0001H13V13.0001H11V11.0001Z" fill="black"/>
</svg>
