<svg width="24" height="24" viewBox="0 0 24 24" fill="none" xmlns="http://www.w3.org/2000/svg">
<g clip-path="url(#clip0)">
<path d="M5.10349 5.62821L2 2.40634L3.35413 1.00012L6.45666 4.22299H21.043C21.1921 4.22298 21.3392 4.25918 21.4725 4.32869C21.6058 4.39821 21.7216 4.49913 21.8107 4.62338C21.8997 4.74764 21.9596 4.89179 21.9855 5.04434C22.0114 5.19689 22.0025 5.35361 21.9597 5.502L19.663 13.4523C19.6039 13.6571 19.4828 13.8367 19.3176 13.9643C19.1525 14.092 18.9521 14.1609 18.7462 14.1609H7.01745V16.1485H17.5442V18.1361H6.06047C5.80666 18.1361 5.56325 18.0314 5.38378 17.845C5.20431 17.6586 5.10349 17.4058 5.10349 17.1423V5.62821ZM7.01745 6.21057V12.1733H18.0342L19.7568 6.21057H7.01745ZM6.53896 22.1112C6.15825 22.1112 5.79313 21.9542 5.52393 21.6746C5.25472 21.3951 5.10349 21.0159 5.10349 20.6205C5.10349 20.2252 5.25472 19.846 5.52393 19.5665C5.79313 19.2869 6.15825 19.1299 6.53896 19.1299C6.91967 19.1299 7.28479 19.2869 7.55399 19.5665C7.82319 19.846 7.97443 20.2252 7.97443 20.6205C7.97443 21.0159 7.82319 21.3951 7.55399 21.6746C7.28479 21.9542 6.91967 22.1112 6.53896 22.1112ZM18.0227 22.1112C17.642 22.1112 17.2769 21.9542 17.0077 21.6746C16.7385 21.3951 16.5873 21.0159 16.5873 20.6205C16.5873 20.2252 16.7385 19.846 17.0077 19.5665C17.2769 19.2869 17.642 19.1299 18.0227 19.1299C18.4034 19.1299 18.7685 19.2869 19.0378 19.5665C19.307 19.846 19.4582 20.2252 19.4582 20.6205C19.4582 21.0159 19.307 21.3951 19.0378 21.6746C18.7685 21.9542 18.4034 22.1112 18.0227 22.1112Z" fill="#1A1919"/>
<circle cx="20" cy="4.00012" r="6" fill="white"/>
<circle cx="20" cy="4.00012" r="3" fill="#FE7370"/>
</g>
<defs>
<clipPath id="clip0">
<rect width="24" height="24" fill="white" transform="translate(0 0.00012207)"/>
</clipPath>
</defs>
</svg>
