<svg width="25" height="24" viewBox="0 0 25 24" fill="none" xmlns="http://www.w3.org/2000/svg">
<g clip-path="url(#clip0)">
<path d="M12.511 2C15.2476 2 15.589 2.01 16.6627 2.06C17.7353 2.11 18.4656 2.277 19.1082 2.525C19.7729 2.779 20.3329 3.123 20.8929 3.678C21.4051 4.1779 21.8013 4.78259 22.0542 5.45C22.303 6.087 22.4722 6.813 22.5225 7.878C22.5699 8.944 22.583 9.283 22.583 12C22.583 14.717 22.5729 15.056 22.5225 16.122C22.4722 17.187 22.303 17.912 22.0542 18.55C21.8021 19.2178 21.4057 19.8226 20.8929 20.322C20.3893 20.8303 19.7803 21.2238 19.1082 21.475C18.4666 21.722 17.7353 21.89 16.6627 21.94C15.589 21.987 15.2476 22 12.511 22C9.77448 22 9.43304 21.99 8.35937 21.94C7.28671 21.89 6.5565 21.722 5.91391 21.475C5.24143 21.2245 4.63228 20.8309 4.12916 20.322C3.61691 19.8222 3.2206 19.2175 2.96786 18.55C2.71808 17.913 2.54988 17.187 2.49952 16.122C2.45218 15.056 2.43909 14.717 2.43909 12C2.43909 9.283 2.44916 8.944 2.49952 7.878C2.54988 6.812 2.71808 6.088 2.96786 5.45C3.2199 4.78218 3.6163 4.17732 4.12916 3.678C4.63242 3.16923 5.24153 2.77573 5.91391 2.525C6.5565 2.277 7.28571 2.11 8.35937 2.06C9.43304 2.013 9.77448 2 12.511 2ZM12.511 7C11.1754 7 9.89449 7.52678 8.95006 8.46447C8.00563 9.40215 7.47506 10.6739 7.47506 12C7.47506 13.3261 8.00563 14.5979 8.95006 15.5355C9.89449 16.4732 11.1754 17 12.511 17C13.8467 17 15.1276 16.4732 16.072 15.5355C17.0164 14.5979 17.547 13.3261 17.547 12C17.547 10.6739 17.0164 9.40215 16.072 8.46447C15.1276 7.52678 13.8467 7 12.511 7ZM19.0578 6.75C19.0578 6.41848 18.9251 6.10054 18.689 5.86612C18.4529 5.6317 18.1327 5.5 17.7988 5.5C17.4649 5.5 17.1447 5.6317 16.9086 5.86612C16.6724 6.10054 16.5398 6.41848 16.5398 6.75C16.5398 7.08152 16.6724 7.39946 16.9086 7.63388C17.1447 7.8683 17.4649 8 17.7988 8C18.1327 8 18.4529 7.8683 18.689 7.63388C18.9251 7.39946 19.0578 7.08152 19.0578 6.75ZM12.511 9C13.3124 9 14.081 9.31607 14.6476 9.87868C15.2143 10.4413 15.5326 11.2044 15.5326 12C15.5326 12.7956 15.2143 13.5587 14.6476 14.1213C14.081 14.6839 13.3124 15 12.511 15C11.7097 15 10.9411 14.6839 10.3744 14.1213C9.80779 13.5587 9.48945 12.7956 9.48945 12C9.48945 11.2044 9.80779 10.4413 10.3744 9.87868C10.9411 9.31607 11.7097 9 12.511 9Z" fill="#1A1919"/>
</g>
<defs>
<clipPath id="clip0">
<rect width="24.1727" height="24" fill="white" transform="translate(0.424683)"/>
</clipPath>
</defs>
</svg>
