<svg width="18" height="18" viewBox="0 0 18 18" fill="none" xmlns="http://www.w3.org/2000/svg">
<path d="M8.99991 12.7501C11.7464 12.7501 14.1487 13.9314 15.4552 15.6939L14.0737 16.3471C13.0102 15.0871 11.1352 14.2501 8.99991 14.2501C6.86466 14.2501 4.98966 15.0871 3.92616 16.3471L2.54541 15.6931C3.85191 13.9306 6.25341 12.7501 8.99991 12.7501ZM8.99991 1.50012C9.99447 1.50012 10.9483 1.89521 11.6516 2.59847C12.3548 3.30173 12.7499 4.25556 12.7499 5.25012V7.50012C12.7499 8.46647 12.3768 9.39549 11.7084 10.0935C11.0401 10.7914 10.1281 11.2044 9.16266 11.2464L8.99991 11.2501C8.00535 11.2501 7.05152 10.855 6.34826 10.1518C5.645 9.44851 5.24991 8.49468 5.24991 7.50012V5.25012C5.24997 4.28377 5.62307 3.35475 6.2914 2.65679C6.95974 1.95883 7.87172 1.54581 8.83716 1.50387L8.99991 1.50012ZM8.99991 3.00012C8.426 3.00009 7.87377 3.21937 7.45621 3.61308C7.03865 4.0068 6.78733 4.5452 6.75366 5.11812L6.74991 5.25012V7.50012C6.74935 8.0858 6.97718 8.64862 7.38499 9.06898C7.7928 9.48935 8.34846 9.73413 8.93388 9.75132C9.51931 9.76851 10.0884 9.55674 10.5201 9.16103C10.9519 8.76531 11.2124 8.21683 11.2462 7.63212L11.2499 7.50012V5.25012C11.2499 4.65338 11.0129 4.08109 10.5909 3.65913C10.1689 3.23717 9.59665 3.00012 8.99991 3.00012Z" fill="white"/>
</svg>
