<svg width="25" height="25" viewBox="0 0 25 25" fill="none" xmlns="http://www.w3.org/2000/svg">
<path d="M22.7022 4.00171H2.95867C2.33812 4.00171 1.83044 4.55554 1.83044 5.23246V18.7709C1.83044 19.4478 2.33812 20.0017 2.95867 20.0017H22.7022C23.3227 20.0017 23.8304 19.4479 23.8304 18.7709V5.23246C23.8304 4.55554 23.3227 4.00171 22.7022 4.00171ZM22.2788 4.92472L13.4794 13.1248C13.3212 13.2561 13.0784 13.3383 12.8304 13.3371C12.5825 13.3383 12.3396 13.2561 12.1814 13.1248L3.382 4.92472H22.2788ZM17.5785 12.5999L22.3733 19.0614C22.3781 19.0679 22.384 19.0728 22.3891 19.0787H3.2717C3.27677 19.0726 3.2827 19.0679 3.28751 19.0614L8.08239 12.5999C8.2293 12.4017 8.20145 12.1113 8.01948 11.9506C7.83785 11.7903 7.57157 11.8207 7.42462 12.0189L2.67658 18.4174V5.50166L11.674 13.8632C12.0122 14.138 12.4236 14.2589 12.8303 14.2601C13.2365 14.2592 13.6483 14.1382 13.9867 13.8632L22.9841 5.50166V18.4173L18.2362 12.0189C18.0892 11.8208 17.8227 11.7903 17.6413 11.9506C17.4594 12.1109 17.4315 12.4017 17.5785 12.5999Z" fill="white" stroke="white" stroke-width="0.25"/>
</svg>
