<svg width="26" height="24" viewBox="0 0 26 24" fill="none" xmlns="http://www.w3.org/2000/svg">
<g clip-path="url(#clip0)">
<path d="M23.5652 5.81025C24.0715 7.815 24.0715 12 24.0715 12C24.0715 12 24.0715 16.185 23.5652 18.1898C23.2838 19.2979 22.4606 20.1698 21.418 20.4645C19.5246 21 12.9923 21 12.9923 21C12.9923 21 6.46341 21 4.56666 20.4645C3.51968 20.1653 2.69761 19.2945 2.41952 18.1898C1.91321 16.185 1.91321 12 1.91321 12C1.91321 12 1.91321 7.815 2.41952 5.81025C2.70093 4.70213 3.52411 3.83025 4.56666 3.5355C6.46341 3 12.9923 3 12.9923 3C12.9923 3 19.5246 3 21.418 3.5355C22.465 3.83475 23.2871 4.7055 23.5652 5.81025ZM10.7765 15.9375L17.424 12L10.7765 8.0625V15.9375Z" fill="#1A1919"/>
</g>
<defs>
<clipPath id="clip0">
<rect width="24.1727" height="24" fill="white" transform="translate(0.906738)"/>
</clipPath>
</defs>
</svg>
